HIERARCHY
ROOT Hips
{
	OFFSET -3.958830 18.904000 13.208200
	CHANNELS 6 Xposition Yposition Zposition Zrotation Yrotation Xrotation 
	JOINT LHipJoint
	{
		OFFSET 0.000000 0.000000 0.000000
		CHANNELS 3 Zrotation Yrotation Xrotation
		JOINT LeftUpLeg
		{
			OFFSET 1.800000 -1.400000 0.085000
			CHANNELS 3 Zrotation Yrotation Xrotation
			JOINT LeftLeg
			{
				OFFSET 2.215000 -6.000000 0.000000
				CHANNELS 3 Zrotation Yrotation Xrotation
				JOINT LeftFoot
				{
					OFFSET 2.500000 -6.900000 0.000000
					CHANNELS 3 Zrotation Yrotation Xrotation
					JOINT LeftToeBase
					{
						OFFSET 0.200000 -0.500000 1.950000
						CHANNELS 3 Zrotation Yrotation Xrotation
						End Site
						{
							OFFSET 0.000000 0.000000 0.000000
						}
					}
				}
			}
		}
	}
	JOINT RHipJoint
	{
		OFFSET 0.000000 0.000000 0.000000
		CHANNELS 3 Zrotation Yrotation Xrotation
		JOINT RightUpLeg
		{
			OFFSET -1.800000 -1.400000 0.085000
			CHANNELS 3 Zrotation Yrotation Xrotation
			JOINT RightLeg
			{
				OFFSET -2.215000 -6.000000 0.000000
				CHANNELS 3 Zrotation Yrotation Xrotation
				JOINT RightFoot
				{
					OFFSET -2.500000 -6.900000 0.000000
					CHANNELS 3 Zrotation Yrotation Xrotation
					JOINT RightToeBase
					{
						OFFSET -0.200000 -0.500000 1.950000
						CHANNELS 3 Zrotation Yrotation Xrotation
						End Site
						{
							OFFSET 0.000000 0.000000 0.000000
						}
					}
				}
			}
		}
	}
	JOINT LowerBack
	{
		OFFSET 0.000000 0.000000 0.000000
		CHANNELS 3 Zrotation Yrotation Xrotation
		JOINT Spine
		{
			OFFSET -0.087000 1.940000 -0.288900
			CHANNELS 3 Zrotation Yrotation Xrotation
			JOINT Spine1
			{
				OFFSET 0.000000 1.950000 0.060000
				CHANNELS 3 Zrotation Yrotation Xrotation
				JOINT Neck
				{
					OFFSET 0.000000 0.000000 0.000000
					CHANNELS 3 Zrotation Yrotation Xrotation
					JOINT Neck1
					{
						OFFSET 0.000000 1.600000 0.340000
						CHANNELS 3 Zrotation Yrotation Xrotation
						JOINT Head
						{
							OFFSET 0.000000 1.667000 -0.240000
							CHANNELS 3 Zrotation Yrotation Xrotation
							End Site
							{
								OFFSET 0.000000 0.000000 0.000000
							}
						}
					}
				}
				JOINT LeftShoulder
				{
					OFFSET 0.000000 0.000000 0.000000
					CHANNELS 3 Zrotation Yrotation Xrotation
					JOINT LeftArm
					{
						OFFSET 2.700000 1.550000 -0.730000
						CHANNELS 3 Zrotation Yrotation Xrotation
						JOINT LeftForeArm
						{
							OFFSET 5.450000 0.000000 0.000000
							CHANNELS 3 Zrotation Yrotation Xrotation
							JOINT LeftHand
							{
								OFFSET 3.450000 0.000000 0.000000
								CHANNELS 3 Zrotation Yrotation Xrotation
								JOINT LeftHandIndex1
								{
									OFFSET 0.750000 0.000000 0.000000
									CHANNELS 3 Zrotation Yrotation Xrotation
									End Site
									{
										OFFSET 0.000000 0.000000 0.000000
									}
								}
							}
						}
					}
				}
				JOINT RightShoulder
				{
					OFFSET 0.000000 0.000000 0.000000
					CHANNELS 3 Zrotation Yrotation Xrotation
					JOINT RightArm
					{
						OFFSET -2.700000 1.550000 -0.730000
						CHANNELS 3 Zrotation Yrotation Xrotation
						JOINT RightForeArm
						{
							OFFSET -5.450000 0.000000 0.000000
							CHANNELS 3 Zrotation Yrotation Xrotation
							JOINT RightHand
							{
								OFFSET -3.450000 0.000000 0.000000
								CHANNELS 3 Zrotation Yrotation Xrotation
								JOINT RightHandIndex1
								{
									OFFSET -0.750000 0.000000 0.000000
									CHANNELS 3 Zrotation Yrotation Xrotation
									End Site
									{
										OFFSET 0.000000 0.000000 0.000000
									}
								}
							}
						}
					}
				}
			}
		}
	}
}
MOTION
Frames: 8
Frame Time: 0.016667
0.064440 16.539890 -0.518770 -3.660394 -1.605427 -5.328308 -15.213240 13.255518 3.541065 10.183688 -3.269551 -15.452433 -16.690585 15.333480 35.687592 0.882815 8.685620 1.633338 -0.009680 -0.108580 -0.094880 18.097415 -10.406155 2.942741 -7.610570 3.616464 -11.689123 20.299146 -14.170282 33.589634 -0.809779 -7.094985 1.949265 -0.049800 0.324100 0.139030 -3.239516 -2.521644 -8.320687 8.999101 -1.167420 19.797052 -3.995863 1.708754 5.690343 3.092264 -2.887820 -16.380628 -7.193725 0.885620 33.103115 -1.821100 -0.281190 0.755380 -8.411101 -16.406737 5.855737 14.671256 -0.682236 -3.305919 25.435876 -2.849949 -1.093176 -4.240267 2.912960 0.066150 0.203220 -0.125600 0.132200 2.795114 20.713523 13.328048 -13.540962 -1.484487 -2.283859 -14.449819 -2.305519 -0.262276 2.878806 -1.259434 -0.090830 0.112090 0.078770 0.025270 
0.060250 16.494790 -0.522560 -3.656621 -1.527510 -5.701421 -15.225558 13.148110 3.592655 10.660833 -3.479248 -15.886395 -17.193501 16.079957 37.086980 0.958702 9.056463 1.513847 -0.006840 -0.101860 -0.098230 18.106955 -10.328971 2.950919 -8.004929 3.861738 -11.987772 20.992563 -14.895566 34.807307 -0.868802 -7.390177 1.849322 -0.039760 0.335610 0.141090 -3.240628 -2.487650 -8.353754 8.907963 -1.193428 20.177717 -3.950533 1.702770 6.281364 3.042036 -2.861167 -16.348386 -6.992324 0.816883 32.608170 -1.827710 -0.314810 0.719650 -8.269354 -16.415932 5.860813 13.884945 -0.783624 -3.457458 26.042564 -3.002533 -1.207766 -4.254424 2.931628 0.051550 0.215610 -0.137310 0.133690 2.726997 20.714586 13.348173 -12.610174 -1.161402 -2.482285 -15.262254 -2.733045 -0.295337 2.887952 -1.291358 -0.091280 0.114220 0.081050 0.028120 
0.055660 16.450990 -0.524130 -3.623370 -1.412232 -6.011413 -15.243033 13.041820 3.658849 11.178155 -3.702053 -16.348860 -17.820151 16.872828 38.384364 1.038072 9.429146 1.395397 -0.003470 -0.096320 -0.097920 18.110724 -10.239985 2.959262 -8.459982 4.078272 -12.295225 21.742520 -15.627475 35.872237 -0.929123 -7.665887 1.756962 -0.031810 0.342670 0.141170 -3.226717 -2.480895 -8.400705 8.713596 -1.183231 20.534613 -3.810542 1.700980 6.631565 2.983405 -2.831271 -16.298259 -6.860398 0.774981 32.359361 -1.797390 -0.348860 0.636290 -8.261822 -16.432603 5.848378 13.219185 -0.948995 -3.565187 26.410942 -3.166794 -1.301201 -4.259868 2.939823 0.044610 0.222460 -0.143340 0.135200 2.824168 20.714965 13.339233 -11.838037 -0.962539 -2.652944 -15.945842 -2.930711 -0.325817 2.890290 -1.315255 -0.093260 0.118560 0.081150 0.029170 
0.050490 16.407250 -0.524190 -3.536503 -1.323589 -6.232125 -15.263611 12.936054 3.729486 11.674977 -3.906444 -16.808725 -18.518246 17.667081 39.505266 1.110898 9.785738 1.285196 -0.002470 -0.097250 -0.099810 18.110739 -10.148526 2.968192 -8.990525 4.279036 -12.639500 22.496841 -16.345315 36.813022 -0.986651 -7.926789 1.671255 -0.026370 0.351930 0.142310 -3.202411 -2.480445 -8.450913 8.409766 -1.100945 20.800302 -3.619171 1.732987 6.891433 2.929825 -2.766596 -16.248944 -6.688253 0.722806 32.189873 -1.788160 -0.382740 0.606070 -8.291692 -16.440704 5.824080 12.602852 -1.150134 -3.636182 26.651030 -3.319265 -1.385017 -4.265909 2.943226 0.043230 0.230150 -0.150250 0.137790 2.956695 20.687925 13.339388 -11.072667 -0.882817 -2.780916 -16.522201 -2.961545 -0.355588 2.882737 -1.335981 -0.099140 0.124350 0.084180 0.027560 
0.044920 16.368530 -0.525950 -3.486230 -1.268608 -6.622363 -15.289234 12.873227 3.790256 12.107359 -4.061401 -17.069155 -19.004515 18.367541 40.595127 1.183261 10.092749 1.185935 0.000480 -0.090570 -0.095330 18.100198 -10.068242 2.973865 -9.259134 4.458514 -12.766736 22.926276 -16.934235 37.802847 -1.044045 -8.146527 1.596882 -0.022830 0.345870 0.140670 -3.154089 -2.524600 -8.501766 8.046366 -1.001626 21.325613 -3.327898 1.786870 7.085177 2.927395 -2.681276 -16.293241 -6.547464 0.689017 32.344071 -1.794370 -0.357380 0.390950 -8.343261 -16.509869 5.846300 11.872359 -1.265455 -3.742374 26.962917 -3.431769 -1.462467 -4.262639 2.945421 0.045370 0.226200 -0.145180 0.134580 3.024302 20.767082 13.398988 -10.186817 -0.875986 -2.965884 -17.328257 -2.813343 -0.398668 2.880585 -1.354097 -0.097760 0.126330 0.083920 0.026040 
0.041660 16.331750 -0.526300 -3.525814 -1.163012 -6.947981 -15.309249 12.807135 3.860618 12.664345 -4.218579 -17.374904 -19.569933 19.075519 41.562060 1.252297 10.385990 1.089040 0.004870 -0.086680 -0.086110 18.093989 -9.983926 2.984194 -9.521634 4.619757 -12.908186 23.442702 -17.542794 38.662312 -1.103481 -8.349570 1.529211 -0.023680 0.332440 0.137730 -3.120905 -2.572743 -8.565866 7.898249 -1.000106 21.826660 -3.158625 1.802521 7.063634 2.932856 -2.612953 -16.355549 -6.517215 0.677236 32.776561 -1.723020 -0.374680 0.144670 -8.487045 -16.598173 5.886290 11.211030 -1.289404 -3.814387 27.174203 -3.653110 -1.532520 -4.247796 2.941987 0.057150 0.214930 -0.134930 0.129220 3.159755 20.846772 13.441976 -9.302313 -0.881011 -3.153050 -18.113507 -2.523537 -0.437991 2.875372 -1.365648 -0.096250 0.126440 0.082060 0.021070 
0.041050 16.295110 -0.523650 -3.498031 -1.016891 -7.098338 -15.326501 12.719128 3.935473 13.150709 -4.396532 -17.767889 -20.252838 19.798451 42.389544 1.323680 10.660687 0.998878 0.011730 -0.077110 -0.077700 18.092539 -9.899276 2.996441 -9.966294 4.750655 -13.178584 24.108029 -18.184165 39.355462 -1.160001 -8.548137 1.459835 -0.021380 0.318300 0.135690 -3.099158 -2.590942 -8.627399 7.723341 -0.968158 22.086942 -3.016771 1.810727 6.987758 2.903983 -2.519270 -16.314032 -6.413189 0.639327 33.071113 -1.624410 -0.397990 -0.079390 -8.696702 -16.638297 5.875080 10.587660 -1.439283 -3.876894 27.378800 -3.925832 -1.602499 -4.229843 2.946839 0.062650 0.204350 -0.125240 0.125410 3.418089 20.820172 13.398208 -8.397222 -0.850964 -3.339916 -18.984812 -2.209884 -0.491861 2.869378 -1.386912 -0.091120 0.123080 0.077620 0.018930 
0.041780 16.260340 -0.518450 -3.463080 -0.896442 -7.165867 -15.342187 12.632915 4.010305 13.647451 -4.549413 -18.157645 -20.964024 20.504324 43.079899 1.385410 10.915997 0.916796 0.023520 -0.068370 -0.064860 18.092016 -9.815104 3.010504 -10.441500 4.879807 -13.498278 24.752092 -18.813196 40.000285 -1.216812 -8.735868 1.397070 -0.019440 0.304230 0.134780 -3.080577 -2.610152 -8.690404 7.572950 -0.949695 22.247239 -2.884315 1.798962 6.776507 2.873904 -2.465755 -16.214922 -6.407905 0.649766 33.458807 -1.531000 -0.412720 -0.344790 -9.032800 -16.627731 5.839506 9.981535 -1.542826 -3.911831 27.612691 -4.244310 -1.675940 -4.206886 2.950240 0.075780 0.192640 -0.115040 0.124360 3.806412 20.757250 13.285892 -7.737180 -0.731996 -3.488105 -19.626847 -1.841551 -0.542945 2.855067 -1.400955 -0.088270 0.121480 0.071900 0.013070 
